# xmcd
# 
# Track frame offsets:
#   150
#   16017
#   26392
#   38446
#   52110
#   63259
#   75526
#   88004
#   98634
#   107848
#   127877
#   140187
#   148064
#   162013
#   173531
#   183619
#   195529
#   204903
#   215225
#   224612
# 
# Disc length: 3145 seconds
# 
# Revision: 1
# Processed by: cddbd v1.5.2PL0 Copyright (c) Steve Scherf et al.
# Submitted via: VOLTOCDX V1.0.22 
# 
DISCID=150c4714
DTITLE=Various Artist - True Bluegrass Instrumentals
DYEAR=2007
DGENRE=country
TTITLE0=Tony Rice - John Hardy
TTITLE1=Ricky Skaggs - Florida Blues
TTITLE2=Bill Emerson - Home Sweet Home
TTITLE3=Stanley Brothers - Orange Blossom Special
TTITLE4=Charlie Waller, Randall Hylton - Old Spinning Wheel
TTITLE5=Seldom Scene - Cannonball
TTITLE6=Cody Kilby - St Anne's Reel
TTITLE7=Ralph Stanley, Clinch Mountain Boys - Train 45
TTITLE8=Norman Blake, Red Rector - Mississippi Sawyer
TTITLE9=Richard Greene - Little Rabbit
TTITLE10=Tony Rice - Billy In The Lowground
TTITLE11=Don Reno, Eddie Adcock - Swanee River
TTITLE12=Keith Whitley, Ricky Skaggs - Wildwood Flower
TTITLE13=Josh Graves - Rainbow
TTITLE14=James Price - Katie Hill
TTITLE15=Larry Sparks - Carter's Blues
TTITLE16=J D Crowe - Black Jack
TTITLE17=Curly Ray Cline - Chicken Reel
TTITLE18=Jimmy Arnold - Alabama Jubilee
TTITLE19=Kenny Baker - Back Up And Push
EXTD=
EXTT0=
EXTT1=
EXTT2=
EXTT3=
EXTT4=
EXTT5=
EXTT6=
EXTT7=
EXTT8=
EXTT9=
EXTT10=
EXTT11=
EXTT12=
EXTT13=
EXTT14=
EXTT15=
EXTT16=
EXTT17=
EXTT18=
EXTT19=
PLAYORDER=
